<?xml version="1.0" standalone="no"?>
<!DOCTYPE svg PUBLIC "-//W3C//DTD SVG 20010904//EN"
 "http://www.w3.org/TR/2001/REC-SVG-20010904/DTD/svg10.dtd">
<svg version="1.0" xmlns="http://www.w3.org/2000/svg"
 width="1280.000000pt" height="1280.000000pt" viewBox="0 0 1280.000000 1280.000000"
 preserveAspectRatio="xMidYMid meet">
<metadata>
Created by potrace 1.15, written by Peter Selinger 2001-2017
</metadata>
<g transform="translate(0.000000,1280.000000) scale(0.100000,-0.100000)"
fill="#000000" stroke="none">
<path d="M6340 12177 c-50 -16 -104 -75 -119 -130 -28 -98 36 -203 135 -225
27 -6 141 -13 254 -16 457 -12 924 -90 1370 -226 237 -73 240 -74 287 -61 113
31 172 153 124 256 -29 63 -61 84 -188 126 -465 156 -985 250 -1528 279 -229
12 -289 11 -335 -3z"/>
<path d="M5775 12153 c-675 -69 -1385 -278 -1998 -590 -140 -71 -179 -108
-192 -182 -20 -121 95 -238 212 -216 19 3 105 42 192 85 576 287 1259 484
1861 535 41 4 90 11 108 17 71 22 132 103 132 178 0 49 -32 113 -72 143 -51
39 -96 45 -243 30z"/>
<path d="M8863 11591 c-112 -28 -169 -162 -114 -269 23 -44 49 -64 171 -126
502 -258 1036 -664 1416 -1075 230 -248 228 -246 271 -259 55 -16 81 -15 128
7 48 22 79 54 100 103 36 89 13 143 -126 298 -463 514 -1002 932 -1619 1258
-118 62 -170 77 -227 63z"/>
<path d="M3055 11123 c-39 -21 -156 -107 -280 -207 -451 -360 -862 -809 -1182
-1287 -153 -228 -173 -274 -153 -348 30 -111 152 -169 256 -122 48 22 57 32
190 234 346 524 777 980 1281 1355 121 90 153 133 153 205 0 42 -22 102 -48
130 -48 53 -155 73 -217 40z"/>
<path d="M5330 8070 l0 -2030 -669 -2 -670 -3 1195 -1655 c658 -910 1201
-1660 1207 -1666 9 -9 299 387 1214 1655 l1201 1666 -669 3 -669 2 2 938 c3
985 11 1812 17 1677 3 -63 5 -73 10 -45 5 22 127 215 322 507 l314 471 30 -20
c25 -17 24 -15 -5 11 -36 31 -57 40 -44 19 5 -9 2 -9 -9 1 -20 16 -23 25 -4
15 37 -21 -38 37 -322 250 l-314 236 -1069 0 -1068 0 0 -2030z"/>
<path d="M11045 9615 c-80 -28 -134 -121 -120 -205 4 -21 31 -78 61 -126 346
-550 590 -1163 719 -1804 38 -185 49 -214 94 -253 92 -77 228 -50 282 55 28
55 23 126 -25 348 -134 620 -362 1198 -691 1750 -107 179 -141 220 -202 238
-51 15 -68 15 -118 -3z"/>
<path d="M8200 9546 c0 -2 8 -10 18 -17 15 -13 16 -12 3 4 -13 16 -21 21 -21
13z"/>
<path d="M1195 8833 c-66 -35 -82 -60 -166 -270 -196 -486 -327 -1020 -384
-1553 -22 -216 -36 -520 -26 -558 27 -91 92 -142 183 -142 67 0 114 24 152 78
29 41 30 44 37 224 29 670 158 1260 413 1880 32 78 56 153 56 173 0 40 -22
100 -48 128 -48 53 -155 73 -217 40z"/>
<path d="M11915 6793 c-46 -24 -66 -45 -86 -88 -17 -36 -19 -69 -19 -301 0
-635 -91 -1185 -291 -1769 -68 -200 -72 -245 -29 -308 40 -58 85 -82 155 -82
81 0 134 34 169 109 66 142 193 578 251 861 88 432 137 970 121 1309 -9 182
-27 226 -108 267 -45 23 -122 24 -163 2z"/>
<path d="M739 5902 c-31 -20 -53 -45 -69 -77 -26 -54 -25 -86 15 -340 101
-644 338 -1337 642 -1880 73 -128 110 -158 199 -158 104 0 184 79 184 181 0
46 -7 68 -44 136 -326 598 -537 1232 -626 1877 -24 171 -38 209 -93 253 -31
25 -49 31 -100 34 -55 3 -67 0 -108 -26z"/>
<path d="M11255 3914 c-49 -25 -62 -42 -127 -158 -314 -566 -754 -1096 -1255
-1514 -121 -100 -148 -144 -141 -222 12 -125 141 -203 255 -155 118 49 613
526 867 835 247 300 506 682 635 938 33 66 41 143 20 185 -17 32 -60 77 -91
93 -36 19 -126 18 -163 -2z"/>
<path d="M1847 3169 c-49 -26 -86 -84 -93 -145 -8 -67 20 -116 173 -301 422
-513 938 -957 1502 -1294 115 -68 129 -74 180 -74 69 0 114 24 155 82 54 77
33 198 -43 250 -20 13 -104 66 -186 117 -524 324 -966 717 -1382 1231 -49 60
-104 120 -122 132 -44 30 -130 31 -184 2z"/>
<path d="M9225 1774 c-16 -9 -75 -42 -130 -74 -547 -316 -1184 -540 -1835
-645 -58 -10 -122 -27 -143 -38 -101 -56 -121 -201 -39 -286 62 -65 95 -69
286 -38 693 116 1382 366 1968 714 88 52 112 71 134 109 52 89 17 209 -77 256
-42 22 -124 23 -164 2z"/>
<path d="M4210 1384 c-108 -47 -146 -165 -87 -267 32 -54 75 -77 282 -152 631
-228 1269 -344 1915 -349 194 -1 195 -1 240 26 138 81 115 284 -39 336 -20 7
-100 12 -200 12 -607 0 -1253 123 -1869 356 -151 57 -186 63 -242 38z"/>
</g>
</svg>
